<svg xmlns="http://www.w3.org/2000/svg" viewBox="0 0 900 620">
  <defs><linearGradient id="g" x1="0" x2="1"><stop stop-color="#F5F7F9"/><stop offset="1" stop-color="#DCECF5"/></linearGradient></defs>
  <rect width="900" height="620" fill="url(#g)"/>
  <rect x="90" y="130" width="720" height="320" rx="28" fill="#fff" stroke="#CFE4EF"/>
  <rect x="150" y="190" width="132" height="260" fill="#0D2B45" opacity=".9"/>
  <rect x="312" y="170" width="438" height="280" fill="#fff" stroke="#CFE4EF"/>
  <g fill="#5B9EC9" opacity=".7"><rect x="342" y="205" width="70" height="48" rx="8"/><rect x="438" y="205" width="70" height="48" rx="8"/><rect x="534" y="205" width="70" height="48" rx="8"/><rect x="630" y="205" width="70" height="48" rx="8"/><rect x="342" y="284" width="70" height="48" rx="8"/><rect x="438" y="284" width="70" height="48" rx="8"/><rect x="534" y="284" width="70" height="48" rx="8"/><rect x="630" y="284" width="70" height="48" rx="8"/></g>
  <rect x="112" y="470" width="676" height="18" rx="9" fill="#0D2B45" opacity=".12"/>
  <text x="450" y="536" text-anchor="middle" fill="#0D2B45" font-family="Inter,Arial" font-size="34" font-weight="700">Hospiten Paitilla</text>
</svg>
